# xmcd
#
# Track frame offsets:
#	150
#	13219
#	31100
#	46025
#
# Disc length: 940 seconds
#
# Revision: 1
# Processed by: cddbd v1.5.2PL0 Copyright (c) Steve Scherf et al.
# Submitted via: audiograbber 1.83.01
#
DISCID=2303aa04
DTITLE=Still  - Another Lonely Day
DYEAR=1996
DGENRE=Pop
TTITLE0=Another Lonely Day
TTITLE1=No Pressure
TTITLE2=Awake
TTITLE3=Don't Be Down
EXTD=
EXTT0=
EXTT1=
EXTT2=
EXTT3=
PLAYORDER=
